<svg version="1.1" viewBox="0.0 0.0 960.0 960.0" fill="none" stroke="none" stroke-linecap="square" stroke-miterlimit="10" xmlns:xlink="http://www.w3.org/1999/xlink" xmlns="http://www.w3.org/2000/svg"><clipPath id="p.0"><path d="m0 0l960.0 0l0 960.0l-960.0 0l0 -960.0z" clip-rule="nonzero"/></clipPath><g clip-path="url(#p.0)"><path fill="#ffffff" d="m0 0l960.0 0l0 960.0l-960.0 0z" fill-rule="evenodd"/><path fill="#666666" d="m112.79501 655.1286l0 0c0 -106.038635 85.961334 -192.0 192.0 -192.0l0 0c50.92157 0 99.75751 20.228516 135.7645 56.235535c36.00699 36.006958 56.235504 84.842896 56.235504 135.76447l0 0c0 106.0387 -85.961334 192.0 -192.0 192.0l0 0c-106.038666 0 -192.0 -85.9613 -192.0 -192.0z" fill-rule="evenodd"/><path stroke="#595959" stroke-width="2.6666666666666665" stroke-linejoin="round" stroke-linecap="butt" d="m112.79501 655.1286l0 0c0 -106.038635 85.961334 -192.0 192.0 -192.0l0 0c50.92157 0 99.75751 20.228516 135.7645 56.235535c36.00699 36.006958 56.235504 84.842896 56.235504 135.76447l0 0c0 106.0387 -85.961334 192.0 -192.0 192.0l0 0c-106.038666 0 -192.0 -85.9613 -192.0 -192.0z" fill-rule="evenodd"/><path fill="#434343" d="m194.39502 525.874l0 0c0 -132.54834 107.45166 -240.0 240.0 -240.0l0 0c63.651947 0 124.6969 25.285645 169.70563 70.29437c45.008728 45.008728 70.29437 106.05365 70.29437 169.70563l0 0c0 132.54834 -107.45166 240.0 -240.0 240.0l0 0c-132.54834 0 -240.0 -107.45166 -240.0 -240.0z" fill-rule="evenodd"/><path stroke="#595959" stroke-width="3.3333333333333335" stroke-linejoin="round" stroke-linecap="butt" d="m194.39502 525.874l0 0c0 -132.54834 107.45166 -240.0 240.0 -240.0l0 0c63.651947 0 124.6969 25.285645 169.70563 70.29437c45.008728 45.008728 70.29437 106.05365 70.29437 169.70563l0 0c0 132.54834 -107.45166 240.0 -240.0 240.0l0 0c-132.54834 0 -240.0 -107.45166 -240.0 -240.0z" fill-rule="evenodd"/><path fill="#000000" d="m271.20602 400.8714l0 0c0 -159.05801 128.94202 -288.0 288.00003 -288.0l0 0c76.382324 0 149.63623 30.342766 203.64673 84.35325c54.010498 54.010483 84.35327 127.264404 84.35327 203.64676l0 0c0 159.05798 -128.94202 288.0 -288.0 288.0l0 0c-159.05801 0 -288.00003 -128.94202 -288.00003 -288.0z" fill-rule="evenodd"/><path stroke="#595959" stroke-width="4.0" stroke-linejoin="round" stroke-linecap="butt" d="m271.20602 400.8714l0 0c0 -159.05801 128.94202 -288.0 288.00003 -288.0l0 0c76.382324 0 149.63623 30.342766 203.64673 84.35325c54.010498 54.010483 84.35327 127.264404 84.35327 203.64676l0 0c0 159.05798 -128.94202 288.0 -288.0 288.0l0 0c-159.05801 0 -288.00003 -128.94202 -288.00003 -288.0z" fill-rule="evenodd"/></g></svg>